<svg id="HSB_Logo" xmlns="http://www.w3.org/2000/svg" viewBox="0 0 139.06 54.47"><defs><style>.cls-1{fill:#231f20;}</style></defs><path class="cls-1" d="M23.12,12.83V25.67H20.64V19.93H15.32v5.74H12.83V12.83h2.49v5h5.32v-5ZM40.9,25.93a4.52,4.52,0,0,0,2.6-.68l.09-2.47h-.14a3.84,3.84,0,0,1-2.55,1A2.55,2.55,0,0,1,39,23.08a2.94,2.94,0,0,1,0-3.83,2.52,2.52,0,0,1,1.89-.75,3.87,3.87,0,0,1,2.55,1h.14l-.09-2.46a4.45,4.45,0,0,0-2.6-.67,5.16,5.16,0,0,0-3.41,1.24A4.62,4.62,0,0,0,36,21.16a4.66,4.66,0,0,0,1.49,3.52,5.12,5.12,0,0,0,3.41,1.25m13.36-.26V19.5a3,3,0,0,0-.88-2.31A3.53,3.53,0,0,0,51,16.4a4.14,4.14,0,0,0-1.72.38,3.39,3.39,0,0,0-1.3,1l-.14.18v-5.1H45.54V25.67h2.29V21a2.48,2.48,0,0,1,.67-1.82,2.26,2.26,0,0,1,1.64-.7A1.68,1.68,0,0,1,52,20.37v5.3Zm4.78.26A3.39,3.39,0,0,0,62,24.62,2.78,2.78,0,0,0,62.46,23a2.19,2.19,0,0,0-1-2,4.63,4.63,0,0,0-1.36-.62,6.28,6.28,0,0,1-1.41-.61.83.83,0,0,1-.41-.71c0-.43.48-.75,1.14-.75a3.29,3.29,0,0,1,1.2.21,6.34,6.34,0,0,1,1.16.64h0L61.77,17a4.66,4.66,0,0,0-2.34-.55,3.61,3.61,0,0,0-2.37.77,2.41,2.41,0,0,0-.93,2,2.72,2.72,0,0,0,2.18,2.53,7.16,7.16,0,0,1,1.44.6.8.8,0,0,1,.42.7c0,.52-.47.84-1.25.84a3.94,3.94,0,0,1-2.48-.94h0l-.53,2.19a5.79,5.79,0,0,0,3.18.85m9.35,0A4.48,4.48,0,0,0,71,25.25l.09-2.47h-.14a3.82,3.82,0,0,1-2.54,1,2.54,2.54,0,0,1-1.89-.75,2.64,2.64,0,0,1-.71-1.92,2.63,2.63,0,0,1,.71-1.91,2.5,2.5,0,0,1,1.89-.75,3.85,3.85,0,0,1,2.54,1h.14L71,17.08a4.4,4.4,0,0,0-2.59-.67A5.19,5.19,0,0,0,65,17.65a4.65,4.65,0,0,0-1.48,3.51A4.65,4.65,0,0,0,65,24.68a5.14,5.14,0,0,0,3.42,1.25m13.35-.26V19.5a2.91,2.91,0,0,0-.88-2.31,3.51,3.51,0,0,0-2.39-.79,4.09,4.09,0,0,0-1.71.38,3.5,3.5,0,0,0-1.31,1l-.14.18v-5.1H73V25.67h2.29V21A2.48,2.48,0,0,1,76,19.2a2.25,2.25,0,0,1,1.63-.7,1.68,1.68,0,0,1,1.82,1.87v5.3Zm5.12.26a3.89,3.89,0,0,0,1.68-.37,3.43,3.43,0,0,0,1.27-1l.15-.18v1.28h2.29v-9H90v4.66a2.71,2.71,0,0,1-.61,1.83,2,2,0,0,1-1.56.68A1.68,1.68,0,0,1,86,22v-5.3h-2.3v6.17a3,3,0,0,0,.86,2.32,3.37,3.37,0,0,0,2.33.78m7.55-.26H96.7V12.83H94.41Zm8.86.26a7.12,7.12,0,0,0,3.57-.93l.09-2.2h-.15A5,5,0,0,1,103.45,24a2.71,2.71,0,0,1-2.89-2.18l0-.09h7.06v-.65a5,5,0,0,0-1.13-3.26A4.41,4.41,0,0,0,103,16.4a4.63,4.63,0,0,0-4.67,4.69A4.7,4.7,0,0,0,99,23.55a4.65,4.65,0,0,0,1.77,1.75,5,5,0,0,0,2.47.63M103,18.14a2.26,2.26,0,0,1,1.53.56,2.14,2.14,0,0,1,.73,1.44v.09h-4.72l0-.1a2.49,2.49,0,0,1,2.42-2M18,41.63A4.23,4.23,0,0,0,21.68,40a3.37,3.37,0,0,0,.58-2,2.87,2.87,0,0,0-.69-2A3.61,3.61,0,0,0,19.74,35l-.22-.05.21-.09A3,3,0,0,0,21.65,32a2.86,2.86,0,0,0-1.12-2.36,5,5,0,0,0-3.18-.88H12.83V41.63ZM15.32,36.1h2.47c1.32,0,2,.58,2,1.71s-.67,1.72-2,1.72H15.32Zm0-5.2h2a2.18,2.18,0,0,1,1.52.41,1.52,1.52,0,0,1,.41,1.14,1.5,1.5,0,0,1-.41,1.13,2.13,2.13,0,0,1-1.52.42h-2Zm11,10.73V36.72a2.2,2.2,0,0,1,.6-1.68,2.17,2.17,0,0,1,1.52-.58,2.24,2.24,0,0,1,1.65.75h.23l-.15-2.46a2.51,2.51,0,0,0-1.41-.38,3,3,0,0,0-2.3,1.13l-.14.19V32.62H24v9Zm9.56.26A7.18,7.18,0,0,0,39.44,41l.08-2.2h-.15A5,5,0,0,1,36,40a2.71,2.71,0,0,1-2.89-2.18l0-.09H40.2v-.65a5,5,0,0,0-1.14-3.25,4.34,4.34,0,0,0-3.43-1.43A4.59,4.59,0,0,0,31,37.05a4.78,4.78,0,0,0,.65,2.46,4.72,4.72,0,0,0,1.77,1.75,5.05,5.05,0,0,0,2.48.63m-.24-7.79a2.24,2.24,0,0,1,1.53.56,2.2,2.2,0,0,1,.74,1.44v.09H33.19l0-.1a2.49,2.49,0,0,1,2.42-2m20.29,7.53V35.2a2.76,2.76,0,0,0-.77-2.09,2.82,2.82,0,0,0-2.08-.74A4.1,4.1,0,0,0,50,33.64l-.08.08,0-.1a2.72,2.72,0,0,0-2.63-1.25,3.56,3.56,0,0,0-1.61.38,3,3,0,0,0-1.21,1l-.15.2v-1.3H42v9h2.29V36.86a2.51,2.51,0,0,1,.59-1.72,1.89,1.89,0,0,1,1.46-.68c1,0,1.51.58,1.51,1.72v5.45h2.29V36.77a2.35,2.35,0,0,1,.59-1.65,1.91,1.91,0,0,1,1.46-.66c1,0,1.5.6,1.5,1.72v5.45Zm6.47.26A7.12,7.12,0,0,0,66,41l.09-2.2h-.16A5,5,0,0,1,62.56,40a2.71,2.71,0,0,1-2.89-2.18l0-.09h7.07v-.65a5,5,0,0,0-1.13-3.25,4.38,4.38,0,0,0-3.44-1.43,4.61,4.61,0,0,0-4.66,4.68,4.78,4.78,0,0,0,.65,2.46,4.67,4.67,0,0,0,1.78,1.75,5,5,0,0,0,2.47.63m-.24-7.79a2.26,2.26,0,0,1,1.54.56,2.19,2.19,0,0,1,.73,1.44v.09H59.71l0-.1a2.48,2.48,0,0,1,2.41-2m8.61,7.53V36.72A2.2,2.2,0,0,1,71.37,35a2.13,2.13,0,0,1,1.52-.58,2.24,2.24,0,0,1,1.65.75h.23l-.16-2.46a2.47,2.47,0,0,0-1.41-.38,2.92,2.92,0,0,0-2.29,1.13l-.15.19V32.62H68.48v9Zm14.16,0V35.46A3,3,0,0,0,84,33.15a3.53,3.53,0,0,0-2.39-.78,4.13,4.13,0,0,0-1.72.37,3.39,3.39,0,0,0-1.3,1l-.15.18V28.8H76.19V41.63h2.29V37a2.5,2.5,0,0,1,.68-1.82,2.25,2.25,0,0,1,1.63-.7,1.68,1.68,0,0,1,1.83,1.87v5.3Zm5.93.26a4.43,4.43,0,0,0,1.64-.26,4.1,4.1,0,0,0,1.2-.81l.14-.13v.94h2.3v-9h-2.3v1l-.15-.18A3.41,3.41,0,0,0,91,32.37a4.25,4.25,0,0,0-2.28.64,4.43,4.43,0,0,0-1.65,1.73,5,5,0,0,0,1.31,6.34,4.22,4.22,0,0,0,2.47.81m.5-7.43a2.44,2.44,0,0,1,1.88.77,2.85,2.85,0,0,1,0,3.79,2.44,2.44,0,0,1-1.88.77A2.47,2.47,0,0,1,89.47,39a2.92,2.92,0,0,1,0-3.79,2.47,2.47,0,0,1,1.88-.77m20.32,7.43a7.11,7.11,0,0,0,3.56-.93l.09-2.2h-.15A5,5,0,0,1,111.84,40,2.71,2.71,0,0,1,109,37.79l0-.09H116v-.65a5,5,0,0,0-1.13-3.25,4.37,4.37,0,0,0-3.43-1.43,4.61,4.61,0,0,0-4.67,4.68,4.7,4.7,0,0,0,.66,2.46,4.65,4.65,0,0,0,1.77,1.75,5,5,0,0,0,2.48.63m-.24-7.79a2.26,2.26,0,0,1,1.53.56,2.14,2.14,0,0,1,.73,1.44v.09H109l0-.1a2.49,2.49,0,0,1,2.42-2m14.79,7.53V35.46a3,3,0,0,0-.86-2.31,3.37,3.37,0,0,0-2.33-.78,3.87,3.87,0,0,0-1.67.37,3.39,3.39,0,0,0-1.27,1l-.15.18V32.62h-2.29v9h2.29V37a2.71,2.71,0,0,1,.61-1.83,2,2,0,0,1,1.55-.69,1.7,1.7,0,0,1,1.83,1.87v5.3Zm-99-20.46h0A2.55,2.55,0,0,1,28,19.25a2.72,2.72,0,0,1,3.75,0,2.5,2.5,0,0,1,.79,1.92h2.29a4.7,4.7,0,0,0-1.46-3.4,5.14,5.14,0,0,0-7,0,4.7,4.7,0,0,0-1.46,3.4h2.3Zm77.05,11.45-2.19,4.73-2.2-4.73H97.39l4.38,9h.58l4.38-9ZM26.47,22.68a3.18,3.18,0,0,0,.46,1.65,3.32,3.32,0,0,0,1.23,1.18,3.48,3.48,0,0,0,1.7.42,3.43,3.43,0,0,0,1.68-.42,3.28,3.28,0,0,0,1.24-1.18,3.09,3.09,0,0,0,.46-1.65Z"/></svg>
